<svg width="1200" height="300" viewBox="0 0 1200 300" xmlns="http://www.w3.org/2000/svg" role="img" aria-label="Zenkei — private, in-browser personal finance">
  <defs>
    <linearGradient id="bg" x1="0" y1="0" x2="1" y2="1">
      <stop offset="0%" stop-color="#F8EAEF"/>
      <stop offset="55%" stop-color="#F6EBEE"/>
      <stop offset="100%" stop-color="#E9EDF4"/>
    </linearGradient>
    <radialGradient id="petal" cx="50%" cy="72%" r="72%">
      <stop offset="0%" stop-color="#FCE0EA"/>
      <stop offset="58%" stop-color="#F1A2BC"/>
      <stop offset="100%" stop-color="#DE6E93"/>
    </radialGradient>
  </defs>

  <rect width="1200" height="300" rx="18" fill="url(#bg)"/>
  <rect x="0.5" y="0.5" width="1199" height="299" rx="17.5" fill="none" stroke="#EEDFE4"/>

  <!-- scattered petals -->
  <circle cx="96" cy="74" r="5" fill="#F5BECD"/>
  <circle cx="150" cy="196" r="3.5" fill="#EEA0B8"/>
  <circle cx="238" cy="112" r="2.6" fill="#F3B6C6"/>
  <circle cx="1063" cy="90" r="4.4" fill="#F5BECD"/>
  <circle cx="1122" cy="176" r="3" fill="#EEA0B8"/>
  <circle cx="980" cy="222" r="2.6" fill="#F3B6C6"/>
  <circle cx="1058" cy="248" r="2.2" fill="#F5C2D0"/>
  <circle cx="176" cy="252" r="2.2" fill="#F5C2D0"/>

  <!-- sakura mark -->
  <g transform="translate(600,84) scale(3.1)">
    <path d="M 0 0 C -3.2 -3 -3.6 -8 -2.6 -10.6 Q -1.3 -9.4 0 -8.4 Q 1.3 -9.4 2.6 -10.6 C 3.6 -8 3.2 -3 0 0 Z" fill="url(#petal)" transform="rotate(0)"/>
    <path d="M 0 0 C -3.2 -3 -3.6 -8 -2.6 -10.6 Q -1.3 -9.4 0 -8.4 Q 1.3 -9.4 2.6 -10.6 C 3.6 -8 3.2 -3 0 0 Z" fill="url(#petal)" transform="rotate(72)"/>
    <path d="M 0 0 C -3.2 -3 -3.6 -8 -2.6 -10.6 Q -1.3 -9.4 0 -8.4 Q 1.3 -9.4 2.6 -10.6 C 3.6 -8 3.2 -3 0 0 Z" fill="url(#petal)" transform="rotate(144)"/>
    <path d="M 0 0 C -3.2 -3 -3.6 -8 -2.6 -10.6 Q -1.3 -9.4 0 -8.4 Q 1.3 -9.4 2.6 -10.6 C 3.6 -8 3.2 -3 0 0 Z" fill="url(#petal)" transform="rotate(216)"/>
    <path d="M 0 0 C -3.2 -3 -3.6 -8 -2.6 -10.6 Q -1.3 -9.4 0 -8.4 Q 1.3 -9.4 2.6 -10.6 C 3.6 -8 3.2 -3 0 0 Z" fill="url(#petal)" transform="rotate(288)"/>
    <circle cx="0" cy="0" r="2.1" fill="#F4C24E"/>
    <circle cx="0" cy="-3.1" r="0.8" fill="#E39A2E"/>
    <circle cx="2.95" cy="-0.96" r="0.8" fill="#E39A2E"/>
    <circle cx="1.82" cy="2.51" r="0.8" fill="#E39A2E"/>
    <circle cx="-1.82" cy="2.51" r="0.8" fill="#E39A2E"/>
    <circle cx="-2.95" cy="-0.96" r="0.8" fill="#E39A2E"/>
  </g>

  <text x="600" y="188" text-anchor="middle" font-family="Georgia, 'Times New Roman', serif" font-size="78" font-weight="600" letter-spacing="1" fill="#312B33">Zenkei</text>

  <text x="600" y="230" text-anchor="middle" font-family="-apple-system, 'Segoe UI', Helvetica, Arial, sans-serif" font-size="21" fill="#7C7079">A private, in-browser personal finance dashboard — nothing leaves your device.</text>

  <text x="600" y="268" text-anchor="middle" font-family="'Courier New', ui-monospace, monospace" font-size="12.5" letter-spacing="4" fill="#A89AA1">全景 · SEE THE WHOLE PICTURE · NO BACKEND · NO LOGIN</text>
</svg>
